<?xml version="1.0" encoding="utf-8"?>
<!-- Generator: Adobe Illustrator 16.0.0, SVG Export Plug-In . SVG Version: 6.00 Build 0)  -->
<!DOCTYPE svg PUBLIC "-//W3C//DTD SVG 1.1//EN" "http://www.w3.org/Graphics/SVG/1.1/DTD/svg11.dtd">
<svg version="1.1" id="Слой_1" xmlns="http://www.w3.org/2000/svg" xmlns:xlink="http://www.w3.org/1999/xlink" x="0px" y="0px"
	 width="300px" height="70px" viewBox="0 0 300 70" enable-background="new 0 0 300 70" xml:space="preserve">
<g>
	<g>
		<g>
			<path fill="#FFFFFF" d="M260.267,22.208h14.238l-8.876,33.102h31.605l-3.037,11.337h-45.843L260.267,22.208z M206.549,22.208
				h49.228l-2.799,10.442H217.1l-1.726,6.426h34.061l-2.617,9.766h-34.06l-1.912,7.123h36.146l-2.867,10.683h-49.483L206.549,22.208
				z M165.035,41.44h30.957l-0.252,1.202c-1.679,6.258-3.113,10.977-4.286,14.166c-1.888,5.103-5.634,8.201-11.219,9.314
				c-1.387,0.256-2.764,0.479-4.099,0.651c-1.334,0.167-2.662,0.26-3.985,0.26c-0.417,0-2.405,0.046-5.965,0.132
				c-3.566,0.089-6.081,0.133-7.559,0.133c-7.712,0-13.072-0.198-16.108-0.599c-3.021-0.401-5.29-1.232-6.796-2.488
				c-0.992-0.833-1.654-1.899-1.977-3.215c-0.314-1.31-0.329-3.031-0.057-5.144c0.291-2.109,1.23-6.154,2.83-12.136
				c1.113-4.144,2.033-7.209,2.779-9.212c0.742-1.985,1.659-3.833,2.765-5.502c2.193-3.433,5.476-5.509,9.843-6.255
				c4.906-0.798,12.013-1.197,21.323-1.197c2.799,0,5.273,0.031,7.434,0.1c2.146,0.063,4.062,0.165,5.732,0.319
				c1.524,0,2.964,0.148,4.317,0.425c0.961,0.2,2.084,0.519,3.352,0.975c3.101,1.044,4.55,3.345,4.335,6.907
				c-0.058,0.862-0.215,1.94-0.461,3.219c-0.235,1.278-0.555,2.621-0.931,4.034h-13.545c0.332-1.256,0.497-2.101,0.469-2.53
				c-0.022-0.439-0.197-0.8-0.52-1.102c-0.317-0.313-0.861-0.56-1.63-0.756c-0.781-0.193-1.722-0.288-2.854-0.288
				c-1.21,0-2.198-0.012-2.959-0.039c-3.761-0.109-6.057-0.166-6.891-0.166c-4.767,0-8.173,0.104-10.185,0.312
				c-2.022,0.203-3.477,0.613-4.367,1.202c-0.882,0.597-1.65,1.587-2.291,2.979c-0.646,1.388-1.414,3.756-2.31,7.103
				c-0.995,3.707-1.562,6.322-1.711,7.832c-0.133,1.501,0.076,2.557,0.637,3.152c0.569,0.604,1.43,0.959,2.596,1.095
				c1.619,0.088,3.39,0.158,5.297,0.209c1.897,0.056,3.859,0.087,5.848,0.087c2.794,0,5.062-0.02,6.769-0.058
				c1.723-0.029,3.218-0.062,4.51-0.107c0.634,0,1.212-0.043,1.737-0.144c0.516-0.101,1.102-0.269,1.748-0.512
				c0.63-0.231,1.176-0.703,1.636-1.38c0.452-0.688,0.842-1.631,1.165-2.857l0.308-1.227h-17.807L165.035,41.44z M79.425,22.208
				h13.545l-5.469,20.409c-0.634,2.351-1.104,4.229-1.39,5.638c-0.288,1.408-0.46,2.498-0.522,3.256
				c-0.128,1.733,0.701,2.876,2.501,3.422c1.788,0.543,5.552,0.81,11.248,0.81c4.666,0,7.95-0.131,9.842-0.386
				c1.894-0.271,3.333-0.803,4.315-1.638c0.591-0.519,1.121-1.197,1.592-2.042c0.296-0.568,0.601-1.252,0.906-2.057
				c0.305-0.8,0.534-1.499,0.688-2.078l1.476-4.925l5.469-20.409h13.55l-5.469,20.409c-0.951,3.539-1.769,6.379-2.472,8.536
				c-0.696,2.146-1.342,3.943-1.943,5.404c-1.523,3.732-4.045,6.469-7.542,8.2c-1.902,0.952-4.505,1.632-7.8,2.018
				c-1.702,0.181-3.778,0.306-6.251,0.392c-2.45,0.089-5.559,0.133-9.292,0.133c-2.184,0-4.224-0.031-6.093-0.1
				c-1.871-0.065-3.948-0.134-6.226-0.199c-1.297,0-2.532-0.089-3.671-0.278c-1.154-0.177-2.36-0.43-3.643-0.763
				c-4.435-1.101-6.444-3.969-6.029-8.594c0.088-0.911,0.19-1.791,0.3-2.623c0.108-0.832,0.232-1.553,0.396-2.167
				c0.408-1.688,0.85-3.468,1.318-5.333c0.464-1.863,0.867-3.413,1.197-4.626L79.425,22.208z M14.401,22.208h14.237l-4.257,15.888
				h30.566l4.265-15.888H73.43L61.524,66.646H47.3l4.319-16.116h-30.57l-4.322,16.116H2.494L14.401,22.208z"/>
			<g>
				<defs>
					<path id="SVGID_1_" d="M76.194,39.372l4.241-15.844h10.807l-4.246,15.844H76.194z M120.397,39.372l4.245-15.844h10.807
						l-4.246,15.844H120.397z M139.096,39.372c0.438-1.495,0.908-2.978,1.445-4.401c0.685-1.836,1.561-3.597,2.631-5.242
						c2.12-3.252,5.14-5.038,8.954-5.671c2.913-0.486,5.912-0.725,8.864-0.895c4.069-0.222,8.165-0.288,12.24-0.288
						c2.463,0,4.929,0.024,7.386,0.098c1.917,0.06,3.813,0.233,5.717,0.322c1.369,0.064,2.778,0.122,4.116,0.396
						c1.073,0.224,2.151,0.572,3.183,0.935c2.673,0.929,3.611,2.795,3.447,5.566c-0.068,1.019-0.245,2.059-0.438,3.058
						c-0.184,0.99-0.412,1.974-0.659,2.957h-10.847c0.082-0.458,0.134-0.902,0.118-1.279c-0.042-0.776-0.368-1.451-0.921-1.986
						c-0.593-0.571-1.447-0.886-2.225-1.084c-1.033-0.26-2.125-0.331-3.18-0.331c-0.976,0-1.95-0.002-2.92-0.034
						c-2.297-0.067-4.633-0.167-6.93-0.167c-3.362,0-6.98-0.021-10.32,0.317c-1.597,0.165-3.607,0.505-4.967,1.421
						c-1.256,0.839-2.128,2.169-2.753,3.521c-0.399,0.86-0.758,1.811-1.084,2.787H139.096z M203.32,39.372l4.247-15.844h46.482
						l-2.093,7.797h-35.875l-2.16,8.046H203.32z M257.037,39.372l4.243-15.844h11.495l-4.245,15.844H257.037z M67.46,39.372
						l4.246-15.844H60.225l-4.243,15.844H67.46z M15.42,23.528l-4.248,15.844h11.495l4.244-15.844H15.42z"/>
				</defs>
				<clipPath id="SVGID_2_">
					<use xlink:href="#SVGID_1_"  overflow="visible"/>
				</clipPath>
				
					<linearGradient id="SVGID_3_" gradientUnits="userSpaceOnUse" x1="-415.437" y1="343.7607" x2="-413.7838" y2="343.7607" gradientTransform="matrix(0 -10.8714 158.4329 0 -54321 -4475.5469)">
					<stop  offset="0" style="stop-color:#808285"/>
					<stop  offset="0.69" style="stop-color:#FFFFFF"/>
					<stop  offset="1" style="stop-color:#FFFFFF"/>
				</linearGradient>
				<rect x="11.172" y="22.875" clip-path="url(#SVGID_2_)" fill="url(#SVGID_3_)" width="261.604" height="16.497"/>
			</g>
			<g>
				<defs>
					<path id="SVGID_4_" d="M53.042,50.342l-4.015,14.978h11.481l4.011-14.978H53.042z M8.232,50.342l-4.01,14.978h11.496
						l4.01-14.978H8.232z M73.36,50.342c-0.21,0.854-0.419,1.709-0.639,2.561c-0.167,0.655-0.272,1.337-0.357,2.004
						c-0.113,0.863-0.22,1.722-0.298,2.581c-0.368,3.933,1.208,6.212,5.042,7.185c1.158,0.296,2.336,0.554,3.521,0.744
						c1.147,0.178,2.325,0.243,3.483,0.262c2.086,0.027,4.163,0.124,6.25,0.198c2.017,0.071,4.034,0.1,6.046,0.1
						c3.083,0,6.172-0.023,9.248-0.132c2.042-0.075,4.121-0.156,6.15-0.383c2.419-0.268,5.157-0.792,7.354-1.891
						c3.261-1.63,5.524-4.146,6.909-7.519c0.711-1.738,1.335-3.524,1.912-5.31l0.126-0.4h-10.975
						c-0.255,0.667-0.54,1.338-0.88,1.965c-0.491,0.905-1.111,1.739-1.895,2.415c-1.364,1.183-3.24,1.704-4.997,1.943
						c-1.314,0.185-2.679,0.253-4.007,0.305c-2.005,0.078-4.01,0.098-6.014,0.098c-2.389,0-4.804-0.033-7.188-0.205
						c-1.413-0.103-3.089-0.248-4.443-0.666c-2.303-0.695-3.618-2.35-3.433-4.786c0.029-0.355,0.067-0.707,0.115-1.068H73.36z
						 M181.83,50.342l-0.389,1.545c-0.282,1.128-0.7,2.295-1.344,3.268c-0.563,0.847-1.319,1.522-2.274,1.885
						c-0.64,0.239-1.303,0.445-1.967,0.575c-0.645,0.121-1.307,0.151-1.967,0.164c-1.5,0.025-3.002,0.083-4.501,0.114
						c-2.268,0.041-4.535,0.052-6.797,0.052c-1.964,0-3.921-0.03-5.887-0.091c-1.785-0.05-3.584-0.064-5.369-0.211
						c-1.288-0.113-2.542-0.54-3.452-1.506c-1.033-1.089-1.119-2.765-0.985-4.185c0.047-0.523,0.119-1.06,0.217-1.61h-10.933
						c-0.095,0.398-0.188,0.797-0.279,1.197c-0.343,1.466-0.699,3.002-0.899,4.488c-0.193,1.445-0.319,3.229,0.024,4.658
						c0.25,1.006,0.744,1.843,1.545,2.514c1.604,1.344,4.091,1.917,6.119,2.188c2.021,0.267,4.131,0.363,6.179,0.438
						c3.247,0.121,6.509,0.149,9.756,0.149c2.503,0,5.024-0.069,7.527-0.132c1.986-0.049,4.006-0.135,5.996-0.135
						c1.271,0,2.551-0.081,3.818-0.243c1.343-0.177,2.685-0.389,4.019-0.646c4.996-0.956,8.455-3.671,10.224-8.468
						c0.749-2.031,1.449-4.014,2.089-6.01H181.83z M200.383,50.342l-4.018,14.978h46.738l2.159-8.03h-36.14l1.861-6.947H200.383z
						 M254.096,50.342l-4.013,14.978h43.099l2.326-8.687h-31.604l1.685-6.291H254.096z"/>
				</defs>
				<clipPath id="SVGID_5_">
					<use xlink:href="#SVGID_4_"  overflow="visible"/>
				</clipPath>
				
					<linearGradient id="SVGID_6_" gradientUnits="userSpaceOnUse" x1="-414.3447" y1="343.9531" x2="-412.6904" y2="343.9531" gradientTransform="matrix(0 -9.453 176.1443 0 -60435.625 -3850.8203)">
					<stop  offset="0" style="stop-color:#A7A9AC"/>
					<stop  offset="1" style="stop-color:#FFFFFF"/>
				</linearGradient>
				<rect x="4.222" y="50.342" clip-path="url(#SVGID_5_)" fill="url(#SVGID_6_)" width="291.286" height="15.634"/>
			</g>
		</g>
		<g>
			<path fill-rule="evenodd" clip-rule="evenodd" fill="#FFFFFF" d="M289.49,25.146c3.546,0,6.419,2.873,6.419,6.42
				c0,3.545-2.873,6.415-6.419,6.415s-6.413-2.87-6.413-6.415C283.077,28.019,285.944,25.146,289.49,25.146 M289.49,25.874
				c3.146,0,5.694,2.548,5.694,5.692c0,3.14-2.549,5.688-5.694,5.688c-3.144,0-5.688-2.547-5.688-5.688
				C283.802,28.422,286.347,25.874,289.49,25.874 M286.687,35.245v-7.48h3.628c0.813,0,1.418,0.179,1.804,0.527
				c0.396,0.345,0.592,0.882,0.592,1.599c0,0.454-0.097,0.837-0.283,1.14c-0.196,0.303-0.473,0.514-0.829,0.625
				c0.33,0.117,0.558,0.292,0.695,0.527c0.136,0.238,0.211,0.606,0.233,1.111l0.035,0.875v0.036
				c0.009,0.443,0.107,0.717,0.287,0.813v0.229h-1.683c-0.062-0.109-0.097-0.236-0.125-0.388c-0.03-0.155-0.051-0.339-0.058-0.551
				l-0.019-0.79c-0.021-0.464-0.103-0.774-0.263-0.937c-0.152-0.165-0.44-0.246-0.852-0.246h-1.63v2.911H286.687z M288.221,31.035
				h1.813c0.388,0,0.679-0.078,0.863-0.236c0.183-0.159,0.276-0.415,0.276-0.753c0-0.323-0.094-0.575-0.27-0.736
				c-0.18-0.172-0.449-0.256-0.802-0.256h-1.881V31.035z"/>
		</g>
	</g>
	<path fill="#FAA21B" d="M189.234,3.039h13.52l-0.807,3.006h-9.621l-0.649,2.418h9.155l-0.787,2.941h-9.151l-1.183,4.422h-3.898
		L189.234,3.039z M178.084,6.176c-1.02,0-1.854,0.014-2.479,0.04c-0.627,0.022-1.056,0.065-1.295,0.122
		c-0.495,0.117-0.889,0.396-1.157,0.832c-0.272,0.434-0.58,1.301-0.931,2.596c-0.104,0.386-0.184,0.72-0.241,0.999
		c-0.052,0.281-0.087,0.505-0.092,0.696c-0.022,0.644,0.353,1.019,1.115,1.116c0.561,0.074,1.68,0.112,3.351,0.112
		c1.56,0,2.609-0.029,3.148-0.083c0.531-0.057,0.952-0.181,1.256-0.379c0.267-0.167,0.49-0.429,0.667-0.784
		c0.18-0.355,0.371-0.909,0.57-1.657c0.244-0.939,0.402-1.616,0.455-2.039c0.05-0.415,0.024-0.736-0.086-0.958
		c-0.129-0.277-0.432-0.449-0.889-0.51C181.01,6.207,179.878,6.176,178.084,6.176z M178.965,2.85c2.772,0,4.65,0.069,5.648,0.205
		c1.425,0.199,2.145,0.906,2.163,2.129c0,0.855-0.259,2.271-0.787,4.246c-0.267,0.991-0.52,1.837-0.762,2.545
		c-0.248,0.704-0.489,1.276-0.724,1.702c-0.664,1.213-1.77,1.921-3.315,2.131c-1.115,0.138-3.022,0.205-5.714,0.205
		c-2.809,0-4.696-0.067-5.679-0.205c-1.429-0.195-2.159-0.904-2.171-2.131c-0.006-0.854,0.271-2.295,0.811-4.322
		c0.521-1.96,1.017-3.349,1.466-4.172c0.662-1.209,1.769-1.923,3.313-2.129C174.332,2.919,176.251,2.85,178.965,2.85z
		 M150.534,9.379h5.478c0.342,0,0.668-0.004,0.98-0.007c0.327-0.009,0.576-0.021,0.758-0.04c0.172-0.017,0.346-0.069,0.496-0.148
		c0.188-0.1,0.35-0.26,0.471-0.47c0.142-0.219,0.256-0.539,0.37-0.956c0.112-0.417,0.155-0.729,0.13-0.933
		c-0.018-0.208-0.114-0.357-0.281-0.453c-0.12-0.055-0.277-0.093-0.47-0.11l-1.624-0.031h-5.469L150.534,9.379z M144.908,15.826
		l3.421-12.788h9.417c2.259,0,3.575,0.026,3.956,0.074c0.42,0.041,0.805,0.181,1.147,0.434c0.407,0.283,0.632,0.691,0.667,1.208
		c0.048,0.515-0.071,1.325-0.369,2.434c-0.251,0.939-0.49,1.616-0.721,2.045c-0.233,0.424-0.548,0.777-0.943,1.054
		c-0.403,0.274-0.973,0.47-1.702,0.582c0.386,0,0.716,0.057,0.975,0.184c0.263,0.126,0.465,0.305,0.599,0.534
		c0.139,0.233,0.191,0.524,0.159,0.862c-0.037,0.343-0.204,1.076-0.503,2.187l-0.323,1.189h-3.834l0.184-0.685
		c0.191-0.714,0.298-1.218,0.321-1.523c0.027-0.302-0.012-0.534-0.109-0.691c-0.104-0.15-0.245-0.248-0.421-0.272
		c-0.185-0.033-0.403-0.05-0.661-0.064c-0.254-0.01-0.589-0.02-0.998-0.02h-5.498l-0.865,3.255H144.908z M132.879,3.039h14.162
		l-0.808,3.006h-10.32l-0.493,1.848h9.795l-0.746,2.813h-9.813l-0.541,2.046h10.401l-0.832,3.075h-14.229L132.879,3.039z
		 M105.29,3.039h3.972l0.868,9.576h0.72l5.459-9.576h4.697l0.35,9.576h0.736l6.01-9.576h4.129l-8.396,12.788h-6.017l-0.055-9.378
		l-5.049,9.378h-6.033L105.29,3.039z M95.402,6.176c-1.028,0-1.846,0.014-2.479,0.04c-0.625,0.022-1.058,0.065-1.294,0.122
		c-0.501,0.117-0.882,0.396-1.158,0.832c-0.276,0.434-0.577,1.301-0.927,2.596c-0.105,0.386-0.184,0.72-0.241,0.999
		c-0.046,0.281-0.088,0.505-0.093,0.696c-0.024,0.644,0.35,1.019,1.111,1.116c0.564,0.074,1.685,0.112,3.358,0.112
		c1.557,0,2.606-0.029,3.142-0.083c0.539-0.057,0.956-0.181,1.254-0.379c0.271-0.167,0.498-0.429,0.674-0.784
		c0.177-0.355,0.37-0.909,0.567-1.657c0.25-0.939,0.4-1.616,0.458-2.039c0.053-0.415,0.028-0.736-0.081-0.958
		c-0.138-0.277-0.441-0.449-0.904-0.51C98.325,6.207,97.199,6.176,95.402,6.176z M96.284,2.85c2.77,0,4.655,0.069,5.643,0.205
		c1.428,0.199,2.155,0.906,2.164,2.129c0,0.855-0.255,2.271-0.789,4.246c-0.26,0.991-0.515,1.837-0.761,2.545
		c-0.246,0.704-0.491,1.276-0.722,1.702c-0.66,1.213-1.767,1.921-3.307,2.131c-1.125,0.138-3.028,0.205-5.722,0.205
		c-2.801,0-4.701-0.067-5.678-0.205c-1.433-0.195-2.153-0.904-2.17-2.131c0-0.854,0.267-2.295,0.811-4.322
		c0.52-1.96,1.011-3.349,1.466-4.172c0.663-1.209,1.764-1.923,3.313-2.129C91.65,2.919,93.571,2.85,96.284,2.85z M73.244,9.501h4.87
		h0.317h0.246h0.193h0.162h0.112c0.301,0,0.494-0.014,0.603-0.041c0.209-0.017,0.396-0.067,0.568-0.148
		c0.214-0.099,0.39-0.259,0.539-0.479c0.136-0.217,0.265-0.555,0.386-1.01c0.116-0.441,0.162-0.771,0.124-0.984
		c-0.037-0.217-0.162-0.377-0.372-0.472c-0.088-0.041-0.296-0.069-0.615-0.098c-0.322-0.019-0.787-0.036-1.39-0.036h-4.873
		L73.244,9.501z M67.644,15.826l3.43-12.788h8.761c1.773,0,2.877,0.038,3.318,0.103c1.225,0.172,1.974,0.577,2.256,1.218
		c0.271,0.644,0.18,1.795-0.261,3.464c-0.429,1.583-0.904,2.691-1.447,3.328c-0.353,0.427-0.791,0.755-1.299,0.978
		c-0.508,0.22-1.163,0.376-1.988,0.472c-0.255,0.029-0.663,0.048-1.221,0.064c-0.56,0.019-1.189,0.029-1.912,0.029H72.38
		l-0.832,3.132H67.644z M50.818,3.039h14.17l-0.806,3.006H53.855l-0.489,1.848h9.795l-0.753,2.813h-9.808l-0.539,2.046h10.394
		l-0.82,3.075H47.399L50.818,3.039z M32.052,3.039h4.096L34.92,7.613h8.798l1.23-4.575h4.087l-3.426,12.788h-4.093l1.237-4.637
		h-8.787l-1.242,4.637h-4.1L32.052,3.039z M15.674,3.039h15.474l-0.865,3.259h-5.688l-2.554,9.528h-4.097l2.558-9.528h-5.7
		L15.674,3.039z"/>
</g>
</svg>
