<?xml version="1.0" encoding="utf-8"?>
<!-- Generator: Adobe Illustrator 16.0.0, SVG Export Plug-In . SVG Version: 6.00 Build 0)  -->
<!DOCTYPE svg PUBLIC "-//W3C//DTD SVG 1.1//EN" "http://www.w3.org/Graphics/SVG/1.1/DTD/svg11.dtd">
<svg version="1.1" id="Слой_1" xmlns="http://www.w3.org/2000/svg" xmlns:xlink="http://www.w3.org/1999/xlink" x="0px" y="0px"
	 width="300px" height="70px" viewBox="0 0 300 70" enable-background="new 0 0 300 70" xml:space="preserve">
<g>
	<path fill-rule="evenodd" clip-rule="evenodd" d="M100.467,67.21c0-4.561,0-9.057,0-13.658c0.373-0.016,0.727-0.049,1.081-0.049
		c9.96-0.004,19.922-0.01,29.884,0.012c0.461,0.006,0.974-0.016,0.974-0.016s0.312-0.658,0.422-1.004
		c1.567-4.939,6.448-9.666,13.641-8.689c6.387,0.865,10.82,6.125,10.826,12.525c0,6.375-4.092,11.465-10.188,12.672
		c-6.882,1.367-13.506-3.217-14.662-10.127c-0.061-0.361-0.124-0.719-0.203-1.166c-0.307,0-0.58,0-0.854,0
		c-5.731,0-18.189,0.166-18.189,0.166l-0.021,3.236c0,0,7.595-0.018,10.923-0.018c0.304,0,0.605,0,0.95,0c0,2.086,0,4.07,0,6.115
		C116.841,67.21,108.678,67.21,100.467,67.21z M144.801,66.958c5.684,0.004,10.084-4.611,10.095-10.604
		c0.011-5.729-4.538-10.387-10.159-10.41c-5.449-0.016-10.076,4.77-10.091,10.438C134.634,62.298,139.1,66.946,144.801,66.958z"/>
	<path fill-rule="evenodd" clip-rule="evenodd" d="M173.478,43.558c-4.109-1.889-7.919-4.064-9.402-8.756
		c-0.787-2.509-0.815-5.034-0.318-7.747c0.684,0.416,1.273,0.766,1.852,1.127c2.116,1.318,4.312,2.462,6.799,2.928
		c1.979,0.372,3.843,0.132,5.641-0.841c3.771-2.041,7.803-2.333,11.827-1.169c3.375,0.976,6.622,2.374,9.903,3.645
		c0.293,0.116,0.646,0.75,0.562,1.021c-0.176,0.584-0.688,0.248-1.052,0.088c-3.227-1.417-6.446-2.845-9.914-3.623
		c-3.347-0.755-6.529-0.571-9.545,1.263c-1.246,0.761-2.581,1.406-3.938,1.957c-3.617,1.478-6.78,0.673-9.517-2.053
		c-0.314-0.314-0.611-0.643-1.009-1.062c-0.056,0.292-0.11,0.465-0.11,0.64c0.006,2.848,1.053,5.216,3.271,7.042
		c2,1.654,4.294,2.781,6.697,3.721c3.617,1.418,6.346,3.82,8.072,7.328c0.162,0.324,0.294,0.668,0.51,1.168
		c-0.95,0-1.782,0.033-2.604-0.021c-0.192-0.012-0.386-0.291-0.541-0.484c-2.883-3.545-7.344-4.775-11.308-3.121
		c-4.053,1.693-6.529,6.01-6.011,10.48c0.53,4.561,3.502,8.072,7.715,8.873c3.583,0.684,6.727-0.293,9.141-3.111
		c0.552-0.645,1.093-0.865,1.87-0.793c0.44,0.039,0.888,0.006,1.355,0.006c-1.863,4.041-6.521,7.023-12.389,6.092
		c-6.247-0.988-10.212-6.049-10.161-12.631C160.915,50.058,165.796,43.31,173.478,43.558z"/>
	<path fill-rule="evenodd" clip-rule="evenodd" d="M189.556,67.206c0-4.174,0-8.283,0-12.518c8.743,0,17.445,0,26.251,0
		c0-3.473,0-6.818,0-10.299c1.097,0,2.536-0.033,3.534,0.033l-0.155,22.859c-0.805-0.066-2.402-0.016-3.309-0.016
		c-0.021-0.398,0.007-10.525,0.007-10.525c-4.433,0.025-10.471,0.025-14.903,0c0,0-0.022,10.096-0.022,10.465
		C197.131,67.206,193.393,67.206,189.556,67.206z"/>
	<path fill-rule="evenodd" clip-rule="evenodd" d="M97.19,61.72c0,1.77,0.003,3.93,0.003,5.563c0,0-9.98-0.016-14.549-0.016
		c-0.642,0-1.285,0-1.985,0c0-7.693,0-15.295,0-22.959c1.175,0,2.344,0,3.674,0c0,5.766,0,11.545,0,17.412
		C88.685,61.72,92.877,61.72,97.19,61.72z"/>
	<path fill-rule="evenodd" clip-rule="evenodd" d="M169.882,0.755c-1.34,3.474-1.996,6.851-2.145,10.388
		c-14.446-0.726-28.787-0.524-43.089,1.601c3.281-0.793,6.532-1.745,9.846-2.34c3.573-0.64,7.207-0.946,10.811-1.409
		c0.353-0.047,0.813-0.061,1.028-0.282c1.594-1.637,3.704-1.769,5.765-2.034c3.653-0.469,7.318-0.527,10.975-0.053
		c0.573,0.075,0.854-0.116,1.146-0.582c1.203-1.921,2.841-3.421,4.678-4.717C169.137,1.157,169.413,1.03,169.882,0.755z"/>
	<path fill-rule="evenodd" clip-rule="evenodd" d="M128.751,43.96c-0.768,1.611-1.446,3.061-2.164,4.492
		c-0.088,0.178-0.386,0.348-0.589,0.348c-4.487,0.012-8.974,0.006-13.461-0.006c-0.043,0,1.668-2.844,1.652-2.932
		c-4.729,0-9.459,0-14.368,0c0.686-1.23,1.224-1.914,2.618-1.881c4.738,0.121,9.482,0.055,14.224,0.045
		c3.667-0.006,7.335-0.045,11.003-0.066C127.97,43.954,128.274,43.96,128.751,43.96z"/>
	<path fill-rule="evenodd" clip-rule="evenodd" d="M189.556,52.108c0-2.613,0-5.111,0-7.67c3.783,0,7.575,0,11.418,0
		c0.012,0.299-0.021,0.598-0.016,0.895c0,2.002,0,4.773-0.005,6.775C200.722,52.108,193.255,52.108,189.556,52.108z"/>
	<path fill-rule="evenodd" clip-rule="evenodd" d="M173.587,9.009c1.318,0.397,2.503,0.722,3.667,1.119
		c9.578,3.264,18.042,8.455,25.716,14.983c0.834,0.708,1.649,1.342,2.796,1.409c0.777,0.047,1.12,0.507,1.147,1.285
		c0.066,1.745,0.188,3.49,0.243,5.238c0.005,0.209-0.206,0.507-0.403,0.639c-1.418,0.968-2.852,1.925-4.313,2.83
		c-0.226,0.137-0.688,0.104-0.925-0.041c-0.425-0.258-0.783-0.641-1.127-1.02c-0.143-0.159-0.157-0.429-0.236-0.649
		c0.254-0.067,0.503-0.138,0.757-0.196c0.044-0.009,0.12,0.025,0.153,0.063c0.922,1.131,1.65,0.303,2.404-0.243
		c0.8-0.579,1.896-1,2.305-1.784c0.381-0.739,0.033-1.855,0.005-2.81c-0.011-0.253-0.011-0.507-0.021-0.761
		c-0.043-1.213-0.051-1.182-1.235-1.428c-0.387-0.077-0.783-0.286-1.091-0.539c-8.006-6.661-16.91-11.673-26.914-14.675
		c-0.729-0.217-1.462-0.46-2.21-0.579c-0.707-0.113-0.972-0.463-0.9-1.138C173.461,10.194,173.516,9.67,173.587,9.009z"/>
	<path fill-rule="evenodd" clip-rule="evenodd" d="M132.405,36.778c-0.771,1.414-1.467,2.693-2.187,3.961
		c-0.074,0.137-0.313,0.248-0.476,0.248c-4.027,0.016-8.057,0.012-12.274,0.012c0.674-0.998,1.271-1.885,1.957-2.898
		c-4.64,0-9.108,0-13.577,0C114.595,36.688,123.393,36.406,132.405,36.778z"/>
	<path fill-rule="evenodd" clip-rule="evenodd" d="M136.397,29.547c-0.689,1.146-1.313,2.208-1.969,3.244
		c-0.096,0.149-0.373,0.257-0.568,0.257c-3.719,0.03-7.439,0.043-11.161,0.055c-0.018,0-0.035-0.036-0.11-0.119
		c0.513-0.65,1.039-1.315,1.681-2.128c-4.563,0-8.912,0-13.262,0C119.38,29.398,127.812,29.36,136.397,29.547z"/>
	<path fill-rule="evenodd" clip-rule="evenodd" d="M116.166,24.146c8.009-1.483,16.043-1.558,24.294-1.287
		c-0.776,1.136-1.438,2.134-2.142,3.105c-0.102,0.143-0.389,0.209-0.59,0.209c-3.241,0.019-6.484,0.022-9.726,0.024
		c-0.074,0-0.15-0.03-0.344-0.074c0.546-0.64,1.044-1.219,1.691-1.977C124.812,24.146,120.488,24.146,116.166,24.146z"/>
	<path fill-rule="evenodd" clip-rule="evenodd" d="M132.162,19.733c0.469-0.541,0.844-0.971,1.401-1.61c-2.487,0-4.701,0-6.913,0
		c-2.22,0-4.439,0-6.661,0c8.074-1.666,16.242-1.407,24.617-1.279c-0.735,0.998-1.384,1.891-2.062,2.762
		c-0.077,0.102-0.309,0.121-0.47,0.121C138.814,19.733,135.554,19.733,132.162,19.733z"/>
	<path fill-rule="evenodd" clip-rule="evenodd" d="M176.432,19.176c-2.873,1.252-5.088-0.132-7.178-1.897
		C171.668,15.961,174.761,16.783,176.432,19.176z"/>
</g>
</svg>
