<?xml version="1.0" encoding="utf-8"?>
<!-- Generator: Adobe Illustrator 16.0.0, SVG Export Plug-In . SVG Version: 6.00 Build 0)  -->
<!DOCTYPE svg PUBLIC "-//W3C//DTD SVG 1.1//EN" "http://www.w3.org/Graphics/SVG/1.1/DTD/svg11.dtd">
<svg version="1.1" id="Слой_1" xmlns="http://www.w3.org/2000/svg" xmlns:xlink="http://www.w3.org/1999/xlink" x="0px" y="0px"
	 width="300px" height="70px" viewBox="0 0 300 70" enable-background="new 0 0 300 70" xml:space="preserve">
<path fill-rule="evenodd" clip-rule="evenodd" fill="#B52925" d="M10.142,57.439h99.803l-0.002,8.07H1.333
	C2.425,61.712,4.834,58.708,10.142,57.439 M298.42,6.399l-3.371,9.535l-32.211,0.117c-6.57,0.029-9.821,7.727-3.024,7.906
	l21.132,0.349c13.3,0.37,11.089,14.305,4.683,20.931c-4.813,4.979-10.951,6.843-18.022,6.978l-33.722-0.348l3.603-9.653
	l32.097,0.117c6.035,0.076,10.46-8.52,2.559-8.372l-19.079,0.055c-17.462-1.201-11.25-16.163-6.506-20.638
	c4.745-4.475,8.11-7.288,20.296-7.093L298.42,6.399z M189.602,5.644c4.373,0,8.746,0,13.121,0L194.016,29.8
	c-7.059,14.448,21.275,14.778,25.137,1.839l9.073-25.75h13.245l-10.057,27.588c-3.19,9.458-13.331,16.921-28.816,18.025
	c-15.129,1.08-28.495-4.021-22.928-18.638L189.602,5.644z M133.113,5.6l13.367,0.135l-7.775,21.962
	c-3.22,10.391,2.183,13.914,8.322,13.914h24.416l-3.272,9.958l-25.508,0.135c-15.922,0.086-23.486-8.716-18.689-22.098L133.113,5.6z
	 M76.366,5.712l-3.41,9.435l32.283,0.113c7.062,0.123,3.353,8.169-1.478,8.071c-6.024,0-12.049,0-18.074,0
	c-7.034,0.139-14.44,0.333-17.644,8.139l-8.048,19.598c4.471,0.077,8.942,0.228,13.413,0.228l5.172-13.434
	c1.538-3.995,4.593-4.81,11.54-4.641c18.493,0.341,23.467-1.382,29.669-8.071c3.637-3.924,7.926-19.471-6.707-19.438H76.366z
	 M18.41,5.644c4.374,0,8.748,0,13.121,0L22.825,29.8c-7.059,14.448,21.276,14.778,25.137,1.839l9.074-25.75h13.244L60.225,33.478
	c-3.192,9.458-13.333,16.921-28.816,18.025c-15.13,1.08-28.495-4.021-22.931-18.638L18.41,5.644z"/>
<path fill-rule="evenodd" clip-rule="evenodd" fill="#1F1A17" d="M290.419,65.37v-3.36l-3.057-4.57h1.275l1.565,2.391
	c0.287,0.446,0.554,0.893,0.805,1.342c0.237-0.415,0.525-0.883,0.865-1.401l1.536-2.331h1.223l-3.165,4.57v3.36 M280.833,60.941
	h2.255c0.479,0,0.856-0.052,1.124-0.151c0.272-0.101,0.477-0.258,0.616-0.477c0.143-0.218,0.213-0.453,0.213-0.71
	c0-0.375-0.137-0.684-0.409-0.927c-0.271-0.24-0.701-0.361-1.291-0.361h-2.508V60.941z M279.783,65.37v-7.931h3.516
	c0.705,0,1.244,0.071,1.611,0.214c0.369,0.142,0.661,0.393,0.883,0.754c0.22,0.36,0.329,0.76,0.329,1.196
	c0,0.563-0.182,1.036-0.547,1.423c-0.363,0.384-0.928,0.63-1.688,0.735c0.28,0.134,0.49,0.265,0.634,0.395
	c0.305,0.282,0.595,0.633,0.871,1.056l1.381,2.158h-1.322l-1.049-1.651c-0.307-0.475-0.558-0.84-0.758-1.091
	c-0.198-0.254-0.375-0.431-0.531-0.53c-0.159-0.103-0.314-0.172-0.479-0.211c-0.119-0.024-0.313-0.038-0.586-0.038h-1.215v3.521
	H279.783z M271.783,65.37v-7.931h5.734v0.936h-4.686v2.429h4.386v0.93h-4.386v2.701h4.868v0.936H271.783z M266.396,65.37v-6.995
	h-2.611v-0.936h6.286v0.936h-2.623v6.995H266.396z M259.015,65.37v-6.995h-2.615v-0.936h6.286v0.936h-2.623v6.995H259.015z
	 M251.229,62.112h2.691l-0.831-2.194c-0.25-0.668-0.439-1.217-0.562-1.646c-0.102,0.51-0.243,1.014-0.428,1.514L251.229,62.112z
	 M248.94,65.37l3.047-7.931h1.128l3.247,7.931h-1.195l-0.926-2.402h-3.317l-0.869,2.402H248.94z M242.813,64.435h1.976
	c0.34,0,0.577-0.016,0.713-0.039c0.243-0.043,0.443-0.116,0.604-0.217c0.164-0.1,0.296-0.247,0.403-0.439
	c0.103-0.194,0.155-0.416,0.155-0.668c0-0.297-0.076-0.552-0.226-0.772c-0.153-0.216-0.361-0.372-0.632-0.46
	c-0.269-0.086-0.655-0.132-1.161-0.132h-1.833V64.435z M242.813,60.772h1.717c0.463,0,0.797-0.033,0.999-0.093
	c0.267-0.079,0.469-0.209,0.603-0.396c0.135-0.185,0.202-0.417,0.202-0.691c0-0.263-0.062-0.496-0.187-0.695
	c-0.128-0.202-0.309-0.338-0.54-0.412c-0.235-0.074-0.64-0.11-1.21-0.11h-1.584V60.772z M241.762,65.37v-7.931h2.978
	c0.604,0,1.091,0.081,1.458,0.238c0.365,0.162,0.651,0.409,0.859,0.743c0.206,0.333,0.312,0.682,0.312,1.047
	c0,0.338-0.092,0.658-0.278,0.957c-0.183,0.298-0.459,0.542-0.83,0.726c0.48,0.141,0.848,0.38,1.104,0.72
	c0.258,0.338,0.389,0.738,0.389,1.201c0,0.37-0.08,0.716-0.237,1.035c-0.155,0.319-0.352,0.566-0.581,0.737
	c-0.231,0.175-0.521,0.304-0.867,0.393c-0.349,0.088-0.774,0.134-1.279,0.134H241.762z M231.11,65.37v-3.36l-3.055-4.57h1.276
	l1.563,2.391c0.288,0.446,0.557,0.893,0.806,1.342c0.239-0.415,0.526-0.883,0.867-1.401l1.536-2.331h1.223l-3.165,4.57v3.36H231.11z
	 M223.356,62.26v-0.93l3.36-0.007v2.942c-0.518,0.412-1.049,0.72-1.597,0.928c-0.551,0.207-1.112,0.31-1.688,0.31
	c-0.78,0-1.489-0.165-2.124-0.498c-0.638-0.332-1.117-0.816-1.442-1.446c-0.324-0.633-0.488-1.339-0.488-2.116
	c0-0.771,0.164-1.492,0.486-2.159c0.321-0.671,0.787-1.168,1.393-1.494c0.604-0.323,1.305-0.485,2.094-0.485
	c0.571,0,1.091,0.092,1.556,0.278c0.463,0.185,0.826,0.444,1.089,0.777c0.265,0.331,0.463,0.763,0.601,1.296l-0.947,0.263
	c-0.12-0.405-0.268-0.724-0.442-0.954c-0.178-0.23-0.431-0.416-0.759-0.554c-0.326-0.138-0.692-0.208-1.091-0.208
	c-0.48,0-0.895,0.073-1.246,0.219c-0.351,0.146-0.632,0.338-0.846,0.575c-0.214,0.24-0.38,0.5-0.5,0.786
	c-0.2,0.49-0.304,1.021-0.304,1.596c0,0.707,0.123,1.297,0.366,1.774c0.245,0.477,0.597,0.827,1.062,1.06
	c0.467,0.23,0.958,0.346,1.483,0.346c0.455,0,0.898-0.088,1.33-0.262c0.434-0.175,0.76-0.361,0.983-0.562V62.26H223.356z
	 M211.175,61.522c0,0.957,0.257,1.707,0.77,2.26c0.516,0.549,1.159,0.824,1.936,0.824c0.791,0,1.44-0.276,1.948-0.833
	c0.511-0.555,0.768-1.344,0.768-2.365c0-0.645-0.11-1.207-0.33-1.688c-0.216-0.482-0.535-0.856-0.955-1.123
	c-0.42-0.262-0.893-0.396-1.414-0.396c-0.746,0-1.384,0.255-1.919,0.766C211.441,59.478,211.175,60.331,211.175,61.522z
	 M210.092,61.507c0-1.317,0.354-2.347,1.06-3.09c0.71-0.745,1.62-1.118,2.74-1.118c0.729,0,1.392,0.176,1.979,0.522
	c0.588,0.353,1.037,0.84,1.344,1.467c0.31,0.623,0.461,1.333,0.461,2.127c0,0.805-0.159,1.524-0.486,2.157
	c-0.324,0.636-0.783,1.116-1.378,1.441c-0.596,0.328-1.237,0.489-1.925,0.489c-0.749,0-1.414-0.179-2.001-0.538
	c-0.59-0.362-1.035-0.855-1.338-1.479C210.245,62.863,210.092,62.202,210.092,61.507z M203.59,65.37v-7.931h1.052v6.995h3.904v0.936
	H203.59z M195.165,61.522c0,0.957,0.256,1.707,0.77,2.26c0.516,0.549,1.159,0.824,1.933,0.824c0.792,0,1.443-0.276,1.952-0.833
	c0.51-0.555,0.767-1.344,0.767-2.365c0-0.645-0.111-1.207-0.329-1.688c-0.22-0.482-0.538-0.856-0.956-1.123
	c-0.422-0.262-0.893-0.396-1.416-0.396c-0.742,0-1.383,0.255-1.919,0.766C195.431,59.478,195.165,60.331,195.165,61.522z
	 M194.082,61.507c0-1.317,0.352-2.347,1.06-3.09c0.707-0.745,1.619-1.118,2.739-1.118c0.729,0,1.393,0.176,1.979,0.522
	c0.585,0.353,1.034,0.84,1.344,1.467c0.309,0.623,0.463,1.333,0.463,2.127c0,0.805-0.164,1.524-0.486,2.157
	c-0.325,0.636-0.785,1.116-1.381,1.441c-0.595,0.328-1.236,0.489-1.925,0.489c-0.748,0-1.413-0.179-2.003-0.538
	c-0.589-0.362-1.032-0.855-1.336-1.479C194.233,62.863,194.082,62.202,194.082,61.507z M185.773,65.37v-7.931h1.077l4.165,6.225
	v-6.225h1.005v7.931h-1.075l-4.165-6.233v6.233H185.773z M177.2,65.37v-7.931h1.05v3.257h4.12v-3.257h1.053v7.931h-1.053v-3.737
	h-4.12v3.737H177.2z M174.21,62.588l1.052,0.266c-0.22,0.861-0.618,1.519-1.188,1.974c-0.572,0.451-1.272,0.676-2.099,0.676
	c-0.855,0-1.548-0.172-2.086-0.52c-0.533-0.349-0.941-0.853-1.222-1.512c-0.277-0.662-0.418-1.371-0.418-2.128
	c0-0.824,0.158-1.546,0.473-2.16c0.315-0.614,0.765-1.081,1.348-1.4c0.581-0.319,1.223-0.479,1.923-0.479
	c0.793,0,1.46,0.201,2.001,0.606c0.54,0.403,0.918,0.97,1.13,1.704l-1.033,0.245c-0.183-0.578-0.448-0.998-0.801-1.263
	c-0.348-0.264-0.789-0.395-1.32-0.395c-0.608,0-1.116,0.146-1.528,0.438c-0.408,0.292-0.696,0.683-0.861,1.178
	c-0.165,0.49-0.249,1-0.249,1.521c0,0.677,0.098,1.262,0.294,1.768c0.198,0.501,0.502,0.878,0.918,1.126
	c0.416,0.253,0.865,0.374,1.348,0.374c0.587,0,1.085-0.168,1.493-0.508C173.792,63.761,174.066,63.255,174.21,62.588z
	 M160.568,65.37v-7.931h5.735v0.936h-4.686v2.429h4.389v0.93h-4.389v2.701h4.868v0.936H160.568z M155.182,65.37v-6.995h-2.611
	v-0.936h6.284v0.936h-2.622v6.995H155.182z M138.554,65.37l-2.105-7.931h1.077l1.207,5.198c0.129,0.545,0.239,1.084,0.334,1.623
	c0.204-0.849,0.321-1.337,0.359-1.468l1.507-5.354h1.267l1.137,4.015c0.284,0.995,0.489,1.931,0.616,2.807
	c0.1-0.5,0.232-1.077,0.395-1.726l1.242-5.096h1.057l-2.175,7.931h-1.011l-1.672-6.042c-0.141-0.507-0.223-0.817-0.249-0.931
	c-0.084,0.363-0.161,0.674-0.233,0.931l-1.682,6.042H138.554z M129.185,65.37v-7.931h5.735v0.936h-4.686v2.429h4.388v0.93h-4.388
	v2.701h4.869v0.936H129.185z M120.535,65.37v-7.931h1.077l4.166,6.225v-6.225h1.005v7.931h-1.076l-4.166-6.233v6.233H120.535z"/>
</svg>
