<?xml version="1.0" encoding="UTF-8" standalone="no"?>
<!-- Generator: Adobe Illustrator 18.1.1, SVG Export Plug-In . SVG Version: 6.00 Build 0)  -->
<svg id="Capa_1" style="enable-background:new 0 0 18.5 18.5" xmlns="http://www.w3.org/2000/svg" xml:space="preserve" viewBox="0 0 18.5 18.5" version="1.1" y="0px" x="0px" xmlns:xlink="http://www.w3.org/1999/xlink">
	<g fill="#030104">
		<path d="m0.381 4.013h8.29l1.669-1.739h-8.923s-1.05 0.908-1.05 0.908l0.014 0.831z"/>
		<path d="m17.796 2.169h-5.304c-0.2 0-0.392 0.086-0.524 0.237l-2.068 2.338h-9.196c-0.389 0-0.704 0.315-0.704 0.704v10.181c0 0.389 0.315 0.703 0.704 0.703h17.093c0.389 0 0.703-0.314 0.703-0.703v-12.757c-0.001-0.389-0.315-0.703-0.704-0.703zm-0.704 12.757h-15.686v-8.774h8.811c0.201 0 0.393-0.087 0.526-0.238l2.067-2.339h4.281l0.001 11.351z"/>
		<path d="m11.838 12.705h-5.351v-1.749h-1.026v2.263c0 0.283 0.229 0.514 0.514 0.514h6.377c0.285 0 0.514-0.23 0.514-0.514v-2.263h-1.027l-0.001 1.749z"/>
		<path d="m7.598 10.46l1.472 1.778s0.12 0.143 0.247 0.014c0.173-0.174 1.427-1.836 1.427-1.836s0.224-0.223-0.071-0.223h-0.767s0-0.125 0-0.322v-2.232s0.003-0.105-0.135-0.105h-1.167c-0.189 0-0.157 0.125-0.157 0.125v2.228 0.362s-0.586 0-0.828 0c-0.245 0-0.021 0.211-0.021 0.211z"/>
	</g>
</svg>
